<svg width="2467" height="2945" viewBox="0 0 2467 2945" fill="none" xmlns="http://www.w3.org/2000/svg">
<path d="M1462.22 8L913.892 8.00024C911.763 8.00024 909.868 9.34749 909.169 11.3576L680.467 668.876C679.337 672.125 681.75 675.518 685.19 675.518H1130.96C1133.13 675.518 1135.05 676.916 1135.72 678.979L1542.73 1936.68C1666.74 2348.27 1670.19 2461.72 1670.19 2637.8C1670.19 2772.46 1586.44 2882.54 1549.35 2928.48C1546.71 2931.76 1549.04 2936.64 1553.25 2936.64H2449.31C2454.35 2936.64 2457.03 2929.08 2453.48 2925.5C2372.95 2844.15 2236.41 2467.42 2175.13 2279.19L1466.99 11.5096C1466.34 9.42174 1464.41 8 1462.22 8Z" fill="#FCFFE7" stroke="#FCFFE7" stroke-width="14.15" stroke-linejoin="round"/>
<path d="M8 2428.45V2932.46C8 2935.22 10.2386 2937.46 13 2937.46H563.016C563.253 2937.46 563.491 2937.45 563.725 2937.41C822.234 2900.18 1010.08 2583.34 1072.12 2428.64C1072.35 2428.05 1072.46 2427.45 1072.46 2426.82V1873H565.894C233.078 1910.02 54.7173 2257.03 8.1703 2427.16C8.05314 2427.58 8 2428 8 2428.45Z" fill="#EB455F" stroke="#EB455F" stroke-width="14.15"/>
<path d="M924.621 2065.95L924.621 1874.89C924.621 1872.13 926.859 1869.89 929.621 1869.89H1311.89C1314.06 1869.89 1315.98 1871.29 1316.65 1873.36L1377.88 2064.43C1378.92 2067.65 1376.51 2070.95 1373.12 2070.95H929.621C926.859 2070.95 924.621 2068.72 924.621 2065.95Z" fill="#EB455F" stroke="#EB455F" stroke-width="8" stroke-linejoin="round"/>
</svg>
