<svg width="1370" height="420" viewBox="0 0 1370 420" fill="none" xmlns="http://www.w3.org/2000/svg">
<path d="M352.492 327.762H416.066C438.215 327.762 457.219 335.691 457.219 360.574C457.219 388.875 430.969 419.637 374.367 419.637C322.824 419.637 308.605 407.332 308.605 396.395C308.605 376.023 343.332 388.055 354.68 374.246H345.52C334.309 374.246 312.023 369.734 312.023 345.125C312.023 326.805 321.594 316.004 348.254 303.289C327.609 297 314.211 283.738 314.211 262.547C314.211 231.785 342.238 217.703 379.973 217.703C385.852 217.703 391.457 217.977 396.789 218.797C396.652 216.883 396.516 214.969 396.516 213.055C396.516 192.273 405.812 176.004 428.098 176.004C441.359 176.004 452.297 182.703 452.297 194.734C452.297 205.398 442.18 213.055 429.328 213.055C416.066 213.055 409.094 207.723 404.309 198.426C402.941 202.391 402.395 207.449 402.395 213.055C402.395 215.242 402.531 217.43 402.805 219.617C428.508 224.539 445.734 238.348 445.734 262.547C445.734 293.309 417.844 307.391 379.973 307.391C370.402 307.391 361.516 306.434 353.449 304.656C346.477 309.305 342.512 312.586 342.512 318.602C342.512 325.027 346.34 327.762 352.492 327.762ZM379.973 222.762C371.086 222.762 365.754 232.605 365.754 262.547C365.754 292.488 371.086 302.332 379.973 302.332C388.996 302.332 394.328 292.488 394.328 262.547C394.328 232.605 388.996 222.762 379.973 222.762ZM382.023 414.852C403.762 414.852 418.391 402 418.391 383.27C418.391 377.664 415.246 374.246 405.539 374.246H360.285C357.414 380.398 356.73 389.148 356.73 392.43C356.73 406.512 365.207 414.852 382.023 414.852ZM568.098 217.703C588.195 217.703 593.801 233.152 593.801 246.004C593.801 262.82 583.41 273.484 568.098 273.484C551.555 273.484 543.078 265.418 543.078 253.387C543.078 240.672 548.957 232.879 557.434 227.273C554.289 227.273 551.281 227.82 548.41 229.188C539.25 233.152 531.867 242.996 531.867 254.207V338.152C531.867 356.062 538.977 361.121 555.93 361.121V367C547.316 366.727 528.586 365.906 510.676 365.906C493.859 365.906 474.445 366.727 465.832 367V361.121C477.316 361.121 481.555 356.609 481.555 341.023V252.156C481.555 235.34 477.59 227.547 465.832 227.547V221.668C471.711 222.215 477.59 222.488 483.195 222.488C501.926 222.488 517.922 221.395 531.867 218.66V238.758C539.25 224.539 551.828 217.703 568.098 217.703ZM672.688 217.703C716.027 217.703 744.602 237.938 744.602 294.539C744.602 351.004 716.027 370.965 672.688 370.965C629.211 370.965 600.637 351.004 600.637 294.539C600.637 237.938 629.211 217.703 672.688 217.703ZM672.688 223.309C661.477 223.309 653 244.363 653 294.539C653 344.578 661.477 365.359 672.688 365.359C683.898 365.359 692.238 344.578 692.238 294.539C692.238 244.363 683.898 223.309 672.688 223.309ZM852.062 168.758V174.363C834.973 175.184 832.102 178.055 832.102 198.426V337.332C832.102 357.703 835.246 360.574 852.062 361.395V367C841.125 366.453 822.668 366.18 805.305 366.18C785.07 366.18 766.066 366.453 755.402 367V361.395C772.492 360.574 775.363 357.703 775.363 337.332V198.426C775.363 178.055 772.219 175.184 755.402 174.363V168.758C766.066 169.305 785.07 169.578 805.305 169.578C822.668 169.578 841.125 169.305 852.062 168.758ZM976.477 217.703C993.566 217.703 1002.73 222.488 1008.06 228.914C1013.66 235.613 1016.26 246.004 1016.26 265.145V341.023C1016.26 356.609 1020.5 361.121 1031.85 361.121V367C1024.33 366.727 1007.24 365.906 992.746 365.906C977.023 365.906 960.48 366.727 952.961 367V361.121C962.531 361.121 965.812 356.609 965.812 341.023V249.969C965.812 238.211 961.848 232.332 952.141 232.332C941.75 232.332 931.906 240.672 931.906 252.43V341.023C931.906 356.609 935.324 361.121 944.895 361.121V367C937.785 366.727 922.473 365.906 907.844 365.906C892.258 365.906 873.938 366.727 865.871 367V361.121C877.355 361.121 881.594 356.609 881.594 341.023V252.156C881.594 235.34 877.629 227.547 865.871 227.547V221.668C871.75 222.215 877.629 222.488 883.234 222.488C901.965 222.488 917.961 221.395 931.906 218.66V238.758C940.93 223.855 956.379 217.703 976.477 217.703ZM1185.38 147.977V336.238C1185.38 353.055 1189.21 360.848 1200.97 360.848V366.727C1195.09 366.18 1189.21 365.906 1183.61 365.906C1164.88 365.906 1149.02 367 1134.93 369.734V349.91C1127.41 364.266 1117.3 370.965 1100.75 370.965C1068.62 370.965 1043.61 348.27 1043.61 293.309C1043.61 242.723 1068.35 217.703 1105.81 217.703C1118.25 217.703 1127.41 219.891 1134.93 224.812V181.609C1134.93 164.793 1130.97 157 1119.21 157V151.121C1125.09 151.668 1130.97 151.941 1136.57 151.941C1155.44 151.941 1171.3 150.848 1185.38 147.977ZM1114.84 356.336C1125.09 356.336 1134.93 347.996 1134.93 336.238V230.691C1130.7 228.094 1125.91 227 1121.81 227C1104.45 227 1095.97 248.875 1095.97 294.266C1095.97 343.758 1104.45 356.336 1114.84 356.336ZM1286.28 217.703C1329.62 217.703 1358.2 237.938 1358.2 294.539C1358.2 351.004 1329.62 370.965 1286.28 370.965C1242.8 370.965 1214.23 351.004 1214.23 294.539C1214.23 237.938 1242.8 217.703 1286.28 217.703ZM1286.28 223.309C1275.07 223.309 1266.59 244.363 1266.59 294.539C1266.59 344.578 1275.07 365.359 1286.28 365.359C1297.49 365.359 1305.83 344.578 1305.83 294.539C1305.83 244.363 1297.49 223.309 1286.28 223.309Z" fill="#FCFFE7"/>
<path d="M179.004 8L119.67 8.00003C117.542 8.00003 115.647 9.34727 114.948 11.3574L90.6066 81.3375C89.4765 84.5867 91.8889 87.9801 95.3291 87.9801H139.349C141.517 87.9801 143.438 89.3777 144.106 91.4407L191.887 239.089C206.745 288.405 207.159 301.998 207.159 323.095C207.159 334.079 202.508 343.698 198.137 350.456C195.85 353.993 198.191 358.901 202.403 358.901H284.939C289.983 358.901 294.989 348.946 292.719 344.442C283.712 326.569 273.157 297.015 267.659 280.127L183.777 11.5096C183.125 9.42174 181.191 8 179.004 8Z" fill="#FCFFE7" stroke="#FCFFE7" stroke-width="14.15" stroke-linejoin="round"/>
<path d="M8 299.6V355C8 357.762 10.2386 360 13 360H74.1873C74.4242 360 74.665 359.983 74.8992 359.948C105.214 355.428 119.187 329.77 126.643 311.386C126.882 310.797 127 310.174 127 309.538V269C127 266.239 129.239 264 132 264H161.874C165.195 264 167.593 260.822 166.682 257.628L160.535 236.087C159.923 233.94 157.96 232.459 155.727 232.459H74.8452C35.3267 236.855 13.9833 277.729 8.17465 298.302C8.05403 298.729 8 299.156 8 299.6Z" fill="#EB455F" stroke="#EB455F" stroke-width="14.15" stroke-linejoin="round"/>
</svg>
