<svg width="87" height="84" viewBox="0 0 87 84" fill="none" xmlns="http://www.w3.org/2000/svg">
<path d="M73.8728 18.757C73.8728 22.2101 70.9858 25.0093 67.4246 25.0093C63.8634 25.0093 60.9765 22.2101 60.9765 18.757C60.9765 15.3039 63.8634 12.5047 67.4246 12.5047C70.9858 12.5047 73.8728 15.3039 73.8728 18.757Z" fill="black"/>
<path fill-rule="evenodd" clip-rule="evenodd" d="M43.7815 62.5233C55.6522 62.5233 65.2753 53.1925 65.2753 41.6822C65.2753 30.172 55.6522 20.8411 43.7815 20.8411C31.9108 20.8411 22.2877 30.172 22.2877 41.6822C22.2877 53.1925 31.9108 62.5233 43.7815 62.5233ZM43.7815 54.1869C50.9039 54.1869 56.6778 48.5884 56.6778 41.6822C56.6778 34.7761 50.9039 29.1776 43.7815 29.1776C36.6591 29.1776 30.8852 34.7761 30.8852 41.6822C30.8852 48.5884 36.6591 54.1869 43.7815 54.1869Z" fill="black"/>
<path fill-rule="evenodd" clip-rule="evenodd" d="M0.793945 40.0149C0.793945 26.0084 0.793945 19.0051 3.60516 13.6553C6.07798 8.94953 10.0237 5.12358 14.8769 2.72585C20.3942 0 27.6168 0 42.062 0H45.501C59.9462 0 67.1687 0 72.6861 2.72585C77.5392 5.12358 81.485 8.94953 83.9578 13.6553C86.769 19.0051 86.769 26.0084 86.769 40.0149V43.3495C86.769 57.3561 86.769 64.3593 83.9578 69.7091C81.485 74.4149 77.5392 78.2409 72.6861 80.6386C67.1687 83.3644 59.9462 83.3644 45.501 83.3644H42.062C27.6168 83.3644 20.3942 83.3644 14.8769 80.6386C10.0237 78.2409 6.07798 74.4149 3.60516 69.7091C0.793945 64.3593 0.793945 57.3561 0.793945 43.3495V40.0149ZM42.062 8.33644H45.501C52.8654 8.33644 57.8717 8.34293 61.7414 8.64949C65.5106 8.9481 67.4382 9.48935 68.7829 10.1537C72.0183 11.7522 74.6488 14.3028 76.2974 17.44C76.9825 18.7438 77.5407 20.6129 77.8487 24.2677C78.1648 28.0199 78.1715 32.8741 78.1715 40.0149V43.3495C78.1715 50.4903 78.1648 55.3446 77.8487 59.0967C77.5407 62.7516 76.9825 64.6206 76.2974 65.9244C74.6488 69.0617 72.0183 71.6123 68.7829 73.2108C67.4382 73.8751 65.5106 74.4163 61.7414 74.715C57.8717 75.0215 52.8654 75.028 45.501 75.028H42.062C34.6975 75.028 29.6913 75.0215 25.8216 74.715C22.0523 74.4163 20.1247 73.8751 18.7801 73.2108C15.5446 71.6123 12.9141 69.0617 11.2656 65.9244C10.5805 64.6206 10.0223 62.7516 9.7143 59.0967C9.39814 55.3446 9.39145 50.4903 9.39145 43.3495V40.0149C9.39145 32.8741 9.39814 28.0199 9.7143 24.2677C10.0223 20.6129 10.5805 18.7438 11.2656 17.44C12.9141 14.3028 15.5446 11.7522 18.7801 10.1537C20.1247 9.48935 22.0523 8.9481 25.8216 8.64949C29.6913 8.34293 34.6975 8.33644 42.062 8.33644Z" fill="black"/>
</svg>
