<svg width="50" height="49" viewBox="0 0 50 49" fill="none" xmlns="http://www.w3.org/2000/svg">
<path fill-rule="evenodd" clip-rule="evenodd" d="M25 47.4688C37.0812 47.4688 46.875 37.8709 46.875 26.0312C46.875 14.1916 37.0812 4.59375 25 4.59375C12.9188 4.59375 3.125 14.1916 3.125 26.0312C3.125 29.876 4.15781 33.4844 5.96637 36.6045L3.125 47.4688L14.5545 44.8714C17.6584 46.5277 21.2171 47.4688 25 47.4688ZM25 44.1707C35.2226 44.1707 43.5096 36.0494 43.5096 26.0312C43.5096 16.0131 35.2226 7.89183 25 7.89183C14.7774 7.89183 6.49038 16.0131 6.49038 26.0312C6.49038 29.8993 7.72578 33.4846 9.831 36.4288L8.17308 42.5216L14.4999 40.9716C17.4834 42.9892 21.1009 44.1707 25 44.1707Z" fill="#BFC8D0"/>
<path d="M43.75 24.5C43.75 34.6482 35.3553 42.875 25 42.875C21.0503 42.875 17.3858 41.6782 14.3635 39.6343L7.95455 41.2045L9.634 35.0326C7.50144 32.0501 6.25 28.4183 6.25 24.5C6.25 14.3518 14.6447 6.125 25 6.125C35.3553 6.125 43.75 14.3518 43.75 24.5Z" fill="#B1C381"/>
<path fill-rule="evenodd" clip-rule="evenodd" d="M25 45.9375C37.0812 45.9375 46.875 36.3396 46.875 24.5C46.875 12.6604 37.0812 3.0625 25 3.0625C12.9188 3.0625 3.125 12.6604 3.125 24.5C3.125 28.3448 4.15781 31.9532 5.96637 35.0732L3.125 45.9375L14.5545 43.3402C17.6584 44.9964 21.2171 45.9375 25 45.9375ZM25 42.6394C35.2226 42.6394 43.5096 34.5181 43.5096 24.5C43.5096 14.4819 35.2226 6.36058 25 6.36058C14.7774 6.36058 6.49038 14.4819 6.49038 24.5C6.49038 28.368 7.72578 31.9533 9.831 34.8975L8.17308 40.9904L14.4999 39.4403C17.4834 41.4579 21.1009 42.6394 25 42.6394Z" fill="white"/>
<path d="M19.5313 14.5469C19.0112 13.5231 18.2133 13.6138 17.4073 13.6138C15.9668 13.6138 13.7207 15.3047 13.7207 18.4517C13.7207 21.0308 14.8804 23.854 18.7882 28.0774C22.5594 32.1532 27.5147 34.2616 31.6284 34.1898C35.7422 34.1181 36.5886 30.6488 36.5886 29.4772C36.5886 28.958 36.2598 28.6989 36.0332 28.6285C34.6314 27.9691 32.0458 26.7406 31.4575 26.5098C30.8692 26.279 30.5621 26.5912 30.3711 26.761C29.8376 27.2593 28.7801 28.7276 28.418 29.0579C28.0559 29.3882 27.5161 29.221 27.2914 29.0962C26.4647 28.7711 24.2233 27.794 22.4367 26.0967C20.2271 23.9976 20.0974 23.2754 19.6811 22.6325C19.3481 22.1182 19.5924 21.8027 19.7144 21.6648C20.1905 21.1265 20.8478 20.2954 21.1426 19.8823C21.4374 19.4693 21.2034 18.8422 21.063 18.4517C20.459 16.772 19.9474 15.3659 19.5313 14.5469Z" fill="white"/>
</svg>
